<?xml version="1.0" standalone="no"?>
<!DOCTYPE svg PUBLIC "-//W3C//DTD SVG 20010904//EN"
 "http://www.w3.org/TR/2001/REC-SVG-20010904/DTD/svg10.dtd">
<svg version="1.0" xmlns="http://www.w3.org/2000/svg"
 width="2000.000000pt" height="2000.000000pt" viewBox="0 0 2000.000000 2000.000000"
 preserveAspectRatio="xMidYMid meet">
<metadata>
Created by potrace 1.14, written by Peter Selinger 2001-2017
</metadata>
<g transform="translate(0.000000,2000.000000) scale(0.100000,-0.100000)"
fill="#000000" stroke="none">
<path d="M6469 16380 c-1 -50 0 -8138 1 -10439 l1 -2354 82 7 c45 3 98 8 117
11 19 2 64 7 100 10 36 4 76 8 90 9 14 2 59 7 100 10 41 4 86 9 100 11 30 4
105 13 175 20 71 7 153 15 200 20 154 16 443 41 580 50 50 3 117 8 150 10 83
6 193 13 305 20 52 4 122 8 155 10 33 2 123 7 200 11 77 3 144 10 149 15 5 4
10 27 12 51 8 106 15 1266 19 3058 5 2489 3 2316 19 2260 7 -25 39 -117 70
-205 32 -88 73 -205 93 -260 19 -55 46 -129 58 -165 24 -67 66 -187 115 -325
15 -44 42 -118 58 -165 17 -47 56 -157 87 -245 31 -88 67 -189 80 -225 13 -36
42 -119 65 -185 22 -66 45 -129 50 -140 5 -11 16 -40 24 -65 8 -25 39 -115 69
-200 31 -85 96 -272 147 -415 50 -143 116 -327 145 -410 29 -82 72 -204 95
-270 23 -66 50 -142 60 -170 10 -27 44 -122 75 -210 31 -88 70 -197 86 -242
16 -46 43 -122 60 -170 33 -94 43 -123 169 -478 45 -126 100 -282 122 -345 22
-63 49 -137 59 -165 10 -27 40 -110 65 -182 44 -124 49 -133 73 -134 14 -1 40
-2 56 -4 17 -1 89 -6 160 -9 72 -4 162 -9 200 -11 39 -2 115 -7 170 -10 104
-6 179 -11 305 -20 41 -3 109 -8 150 -10 41 -3 99 -8 128 -10 77 -7 149 -14
227 -20 39 -3 93 -8 120 -10 28 -3 77 -7 110 -10 33 -3 78 -7 100 -10 22 -2
67 -7 100 -10 67 -6 80 -8 280 -31 167 -19 210 -24 250 -29 81 -12 215 -17
216 -9 8 60 13 9834 6 12109 l-2 690 -1255 0 -1255 0 -2 -145 c0 -80 -3 -1352
-5 -2827 -1 -1475 -6 -2679 -9 -2675 -4 4 -13 27 -22 52 -26 77 -143 408 -197
560 -55 154 -88 248 -170 480 -28 80 -58 163 -66 185 -8 22 -17 47 -19 55 -3
8 -24 71 -49 140 -96 270 -158 447 -173 490 -8 25 -19 54 -24 65 -5 11 -63
175 -129 365 -67 190 -125 354 -130 365 -4 11 -29 81 -55 155 -132 381 -156
446 -165 462 -5 10 -10 25 -10 33 0 8 -4 23 -10 33 -9 18 -99 265 -105 292 -2
8 -24 74 -50 145 -26 72 -63 175 -82 230 -19 55 -43 123 -53 150 -30 82 -115
323 -155 435 -40 117 -68 193 -113 320 -17 47 -75 211 -130 365 l-99 280
-1261 0 -1262 0 -1 -25z"/>
</g>
</svg>
